# xmcd
#
# Track frame offsets:
#	150
#	17052
#	29002
#	42654
#	57431
#	73919
#	90388
#	104235
#	120275
#	138225
#	156138
#	170748
#	188678
#	202843
#	216614
#	232202
#	251750
#	262777
#
# Disc length: 3787 seconds
#
# Revision: 1
# Processed by: cddbd v1.5.2PL0 Copyright (c) Steve Scherf et al.
# Submitted via: audiograbber 1.83.01
#
DISCID=0f0ec912
DTITLE=Various Artist - T1031
DYEAR=1900
DGENRE=
TTITLE0=Carrie Underwood - Cowboy Casanova (Single Edit)
TTITLE1=Paul McCartney - Drive My Car
TTITLE2=Susan Boyle - Silent Night
TTITLE3=Lifehouse - Halfway Gone
TTITLE4=Ne-Yo - Never Knew I Needed
TTITLE5=Mika - Blame It On The Girls
TTITLE6=Mariah Carey - H.A.T.E.U.
TTITLE7=Jay Sean f Lil Jon and Sean Paul - Do You Remember (Remix)
TTITLE8=Gucci Mane f Usher - Spotlight (Clean Edit)
TTITLE9=Kate Voegele - Inside Out
TTITLE10=Phoenix - 1901
TTITLE11=Timbaland f Nelly Furtado and SoShy - Morning After Dark
TTITLE12=I'm OK You're Ok - Hark! The Herald Angels Sing
TTITLE13=Band Perry - Hip To My Heart
TTITLE14=Chris Young - The Man I Want To Be
TTITLE15=Jason Crabb - Somebody Like Me (Radio Edit)
TTITLE16=Sugarland - Winter Wonderland
TTITLE17=Bee Gees - Stayin' Alive
EXTD=
EXTT0=
EXTT1=
EXTT2=
EXTT3=
EXTT4=
EXTT5=
EXTT6=
EXTT7=
EXTT8=
EXTT9=
EXTT10=
EXTT11=
EXTT12=
EXTT13=
EXTT14=
EXTT15=
EXTT16=
EXTT17=
PLAYORDER=
